<svg id="레이어_1" data-name="레이어 1" xmlns="http://www.w3.org/2000/svg" viewBox="0 0 437.15 506.54"><defs><style>.cls-1{fill:#fefefe;}.cls-2{fill:#d0a09a;}.cls-3{fill:#bcc2bf;}.cls-4{fill:#dbdedd;}.cls-5{fill:#e59e91;}.cls-6{fill:#f1e2d9;}.cls-7{fill:#d5756f;}.cls-8{fill:#f0c8be;}.cls-9{fill:#ddaca8;}.cls-10{fill:#eab3af;}.cls-11{fill:#e9baad;}.cls-12{fill:#e2c7b7;}.cls-13{fill:#d3b6bb;}.cls-14{fill:#c9635f;}.cls-15{fill:#b0838a;}.cls-16{fill:#cf6d69;}.cls-17,.cls-18{fill:none;stroke:#eaeae8;}.cls-17{stroke-width:2px;}.cls-19{fill:#eaeae8;}</style></defs><title>logo</title><g id="레이어_3" data-name="레이어 3"><polygon class="cls-1" points="218.5 4.23 1 128.22 2.44 377.25 218.59 505.05 436.15 378.42 436.15 129.87 218.5 4.23"/></g><path class="cls-2" d="M222.57,411.08l26.67,47.19q-.23,26.82-.48,53.61-13.32-8.06-26.67-16.08Q222.36,453.46,222.57,411.08Z" transform="translate(-31.13 -6.53)"/><polygon class="cls-3" points="1 128.22 191.44 237.66 191.44 268.68 181.09 274.71 138.01 248.01 139.45 312.93 191.44 404.55 191.44 488.43 171.61 476.64 109.3 349.41 34.03 397.38 2.44 377.25 2.74 345.09 82.87 298.86 82.57 214.68 1 167.58 1 128.22"/><polygon class="cls-4" points="191.44 268.68 181.09 274.71 191.44 280.47 191.44 268.68"/><path class="cls-4" d="M170.25,304.82q-14.62,8.91-29.25,17.79l46.83,27-17.28-32C170.43,313.34,170.34,309.08,170.25,304.82Z" transform="translate(-31.13 -6.53)"/><path class="cls-4" d="M140.43,355.94l.57-33.33q-53.73,30.6-107.43,61.17Q49.82,394.13,66,404.45,103.2,380.19,140.43,355.94Z" transform="translate(-31.13 -6.53)"/><polygon class="cls-5" points="147.79 44.46 173.62 62.07 139.27 81.9 112.36 65.52 147.79 44.46"/><path class="cls-5" d="M222.57,244.19q.27-46.58.51-93.15l26.1-14.67.42,124.08Q236.1,252.35,222.57,244.19Z" transform="translate(-31.13 -6.53)"/><polygon class="cls-6" points="183.97 149.01 183.97 233.37 191.44 237.66 191.95 144.51 183.97 149.01"/><path class="cls-7" d="M178.92,51l70.71-40.2q0,44.33,0,88.65l-27-19.35c.15-7.53.33-15.06.48-22.62-6.09,3.72-12.18,7.41-18.3,11.13Z" transform="translate(-31.13 -6.53)"/><path class="cls-7" d="M222.57,244.19l27.06,16.29q-13.55,7.38-27.06,14.73Z" transform="translate(-31.13 -6.53)"/><path class="cls-6" d="M143.49,72.05Q126.07,82,108.63,92L215.1,155.54l34.41-22Q196.5,102.76,143.49,72.05Z" transform="translate(-31.13 -6.53)"/><path class="cls-8" d="M142,72.83l26.91,16.38q-13.5,7.83-27,15.69C141.93,94.19,141.93,83.51,142,72.83Z" transform="translate(-31.13 -6.53)"/><polygon class="cls-8" points="191.44 113.67 191.95 144.51 219.88 127.83 191.44 109.56 191.44 113.67"/><polyline class="cls-9" points="218.5 253.95 191.44 268.68 191.44 280.47 218.05 296.46 218.5 253.95"/><polygon class="cls-10" points="191.44 280.47 191.44 363.27 217.63 378.42 218.05 296.46 191.44 280.47"/><polyline class="cls-10" points="217.63 378.42 191.95 393.81 191.44 404.55 217.63 451.56 217.63 378.42"/><polyline class="cls-7" points="191.44 363.27 191.95 393.81 217.63 378.42 191.44 363.27"/><polygon class="cls-10" points="219.31 6.72 247.15 23.4 247.15 98.37 226.48 98.37 218.05 92.91 219.31 6.72"/><path class="cls-11" d="M249.18,99.14c2.61,1.53,5.22,3.06,7.86,4.59l47.1-.18-54.42,31.23Z" transform="translate(-31.13 -6.53)"/><polygon class="cls-12" points="173.62 62.07 140.32 81.42 191.95 111.66 191.95 73.92 173.62 62.07"/><path class="cls-5" d="M222.57,80.09l27,19.35c0,11.79.09,23.55.12,35.34q-13.32-8.28-26.64-16.59Q222.83,99.11,222.57,80.09Z" transform="translate(-31.13 -6.53)"/><polygon class="cls-12" points="272.44 97.2 378.43 97.2 433.57 129.87 397.09 150.93 254.62 149.01 254.62 233.4 247.15 237.66 247.15 112.02 272.44 97.2"/><polygon class="cls-12" points="247.15 97.11 247.15 112.02 272.44 97.2 247.15 97.11"/><polygon class="cls-11" points="247.15 112.14 247.15 237.66 218.59 253.56 218.59 128.58 247.15 112.14"/><polygon class="cls-13" points="325.99 402.54 253.66 443.52 253.66 456.93 326.83 414.99 325.99 402.54"/><path class="cls-13" d="M466.62,296.48l.66,89.55-109.35,64-.81-41,73.17-45.39,1.26-123.48,35.07,19.92v36.36Z" transform="translate(-31.13 -6.53)"/><polygon class="cls-14" points="219.31 253.95 247.15 269.76 247.15 454.95 253.66 451.56 253.66 484.65 218.59 505.05 219.31 253.95"/><polygon class="cls-14" points="219.31 253.95 247.15 237.66 247.15 269.76 219.31 253.95"/><polygon class="cls-14" points="219.31 379.5 247.15 362.01 247.15 395.49 219.31 379.5"/><polygon class="cls-15" points="247.15 237.66 254.44 233.64 254.44 357 435.49 253.56 435.49 289.95 253.66 399.27 253.66 451.56 247.15 454.95 247.15 237.66"/><path class="cls-16" d="M284.79,458.09l72.78-43.29c.12,11.73.27,23.49.39,35.22q-36.58,20.57-73.14,41.13V458.09Z" transform="translate(-31.13 -6.53)"/><path class="cls-13" d="M464.7,137.87l-33.15,17.67v84.63l-146,83.1v40.26L466.62,260.09Z" transform="translate(-31.13 -6.53)"/><g id="레이어_4" data-name="레이어 4"><polyline class="cls-17" points="218.5 4.23 436.15 129.87 436.15 378.42 218.05 505.38 2.44 377.25 1 128.22 218.5 4.23"/><polyline class="cls-2" points="218.41 0.03 218.53 6.72 218.05 505.38 218.5 4.23"/><line class="cls-18" x1="1" y1="128.22" x2="436.15" y2="378.42"/><line class="cls-18" x1="436.15" y1="129.87" x2="2.44" y2="377.25"/><polyline class="cls-18" points="110.83 66.3 109.87 441.09 436.15 253.17 112.36 65.52"/><path class="cls-18" d="M143.49,72.05" transform="translate(-31.13 -6.53)"/><polygon class="cls-18" points="325.99 66.3 325.99 441.09 2.44 253.95 325.99 66.3"/><line class="cls-18" x1="218.53" y1="6.72" x2="218.05" y2="505.38"/><path class="cls-19" d="M249.66,15.65a6.62,6.62,0,0,1-2.37-2.25,4.68,4.68,0,0,1-.69-2.28,4.33,4.33,0,0,1,.6-2.28,6.56,6.56,0,0,1,2.34-2.31,7,7,0,0,1,2.4,2.25,4.35,4.35,0,0,1,0,4.56A6.23,6.23,0,0,1,249.66,15.65Z" transform="translate(-31.13 -6.53)"/></g></svg>